<?xml version="1.0" standalone="no"?>
<!DOCTYPE svg PUBLIC "-//W3C//DTD SVG 20010904//EN"
 "http://www.w3.org/TR/2001/REC-SVG-20010904/DTD/svg10.dtd">
<svg version="1.0" xmlns="http://www.w3.org/2000/svg"
 width="1126.000000pt" height="1126.000000pt" viewBox="0 0 1126.000000 1126.000000"
 preserveAspectRatio="xMidYMid meet">
<metadata>
Created by potrace 1.14, written by Peter Selinger 2001-2017
</metadata>
<g transform="translate(0.000000,1126.000000) scale(0.100000,-0.100000)"
fill="#000000" stroke="none">
<path d="M0 5630 l0 -2730 179 0 c177 0 179 0 183 23 2 12 1 36 -2 52 -3 17
-3 48 0 70 4 23 3 53 -1 67 -4 15 -5 29 -2 32 3 3 5 36 4 73 -2 132 -2 176 3
180 2 3 0 17 -4 33 -4 16 -6 31 -4 33 3 2 4 128 4 278 -1 151 -1 280 0 287 2
34 2 50 0 77 -2 37 -2 140 1 193 1 9 1 31 0 47 -2 34 -3 548 -1 610 0 22 3 41
5 43 2 2 -1 16 -5 32 -4 16 -6 31 -3 34 3 3 5 36 4 73 -2 132 -2 176 3 180 2
3 0 17 -4 33 -4 16 -6 31 -4 33 3 2 4 128 4 278 -1 151 -1 280 0 287 2 30 2
160 0 197 -1 17 -1 36 -1 43 3 28 3 49 2 77 -2 34 -3 548 -1 610 0 22 3 41 5
43 2 2 -1 16 -5 32 -4 16 -6 31 -3 34 3 3 5 36 4 73 -2 132 -2 176 3 180 2 3
0 17 -4 33 -4 16 -6 31 -4 33 3 2 4 128 4 278 -1 151 -1 280 0 287 2 30 2 160
0 197 -1 17 -1 36 -1 43 2 18 2 52 1 103 -1 25 0 50 1 55 1 5 1 28 0 52 l-1
42 -180 0 -180 0 0 -2730z"/>
<path d="M460 5630 l0 -2730 90 0 90 0 0 73 c1 39 0 223 0 407 -1 184 0 355 1
380 0 25 1 52 0 60 -1 8 -1 35 0 60 1 25 1 52 0 60 -1 8 -1 35 0 60 1 25 1 50
1 55 -5 68 -6 155 -2 155 3 0 3 27 0 60 -3 33 -3 60 0 60 3 0 3 27 0 60 -3 33
-3 60 0 60 3 0 3 27 0 60 -3 33 -3 60 0 60 3 0 3 27 0 60 -3 33 -2 60 3 60 4
0 5 4 2 10 -3 5 -6 65 -5 132 0 68 0 276 0 463 -1 187 -1 347 -1 355 0 8 0 35
0 60 0 25 0 52 0 60 0 8 0 35 0 60 0 25 0 52 0 60 0 8 0 35 0 60 0 25 0 52 0
60 0 8 0 35 0 60 0 25 0 52 0 60 0 8 0 35 0 60 0 25 0 52 0 60 0 8 0 35 0 60
0 25 0 52 0 60 0 8 0 35 0 60 0 25 0 52 0 60 0 8 0 35 0 60 0 25 0 52 0 60 0
8 0 35 0 60 0 25 0 50 0 55 0 612 0 839 2 875 1 25 1 52 0 60 -1 8 -1 35 0 60
1 25 1 52 0 60 -1 8 -1 35 0 60 1 25 1 50 1 55 -5 68 -6 155 -2 155 3 0 3 27
0 60 -3 33 -3 60 0 60 3 0 5 25 5 55 0 30 -2 55 -5 55 -3 0 -4 18 -2 40 l4 40
-91 0 -91 0 0 -2730z"/>
<path d="M780 5630 l0 -2730 80 0 80 0 0 2730 0 2730 -80 0 -80 0 0 -2730z"/>
<path d="M1082 8309 c-1 -28 -3 -53 -5 -56 -3 -2 -1 -19 3 -38 4 -19 5 -36 2
-39 -2 -3 -4 -43 -3 -88 3 -96 3 -88 1 -153 -1 -27 -1 -54 0 -60 1 -5 2 -14 0
-20 -1 -5 -1 -46 0 -90 1 -94 1 -87 0 -150 -1 -27 -1 -54 0 -60 1 -5 2 -14 1
-20 -1 -5 -1 -82 -1 -170 1 -186 2 -167 0 -230 -1 -27 -1 -54 0 -60 1 -5 2
-14 1 -20 -2 -13 -2 -391 0 -402 1 -4 1 -12 0 -18 -1 -5 -1 -95 -1 -200 1
-104 1 -194 1 -200 0 -5 -1 -32 -1 -60 -1 -27 -1 -54 0 -60 1 -5 2 -14 1 -20
-2 -13 -2 -391 0 -402 1 -4 1 -12 0 -18 -1 -5 -1 -95 -1 -200 1 -104 1 -194 1
-200 0 -5 -1 -32 -1 -60 -1 -27 -1 -54 0 -60 1 -5 2 -14 1 -20 -1 -5 -1 -82
-1 -170 1 -186 2 -167 0 -230 -1 -27 -1 -54 0 -60 1 -5 2 -14 0 -20 -1 -5 -1
-46 0 -90 1 -94 1 -87 0 -150 -1 -27 -1 -54 0 -60 1 -5 2 -14 0 -20 -1 -5 -1
-46 0 -90 1 -94 1 -87 0 -150 -1 -27 -1 -54 0 -60 1 -5 2 -14 0 -20 -1 -5 -1
-46 0 -90 1 -94 1 -87 0 -150 -1 -27 -1 -54 0 -60 1 -5 2 -14 1 -20 -1 -5 -1
-82 -1 -170 1 -187 2 -166 0 -232 -1 -28 1 -56 4 -62 4 -5 3 -12 -1 -14 -5 -3
-7 -75 -5 -161 l3 -156 149 0 150 0 0 2730 0 2730 -149 0 -149 0 0 -51z"/>
<path d="M1525 8350 c-4 -6 -6 -56 -5 -113 1 -56 1 -108 1 -114 -2 -27 -2 -39
-2 -78 1 -22 0 -93 -1 -157 -2 -65 -1 -118 2 -118 3 0 4 -21 2 -47 -5 -59 -5
-59 -3 -163 0 -47 1 -110 0 -140 0 -30 0 -91 0 -135 0 -44 0 -89 -1 -100 0
-11 0 -58 1 -105 1 -47 2 -89 1 -95 -1 -5 -1 -46 0 -90 1 -44 1 -87 1 -95 0
-14 0 -221 0 -247 1 -35 0 -265 0 -280 -1 -25 0 -224 1 -232 0 -3 0 -10 -1
-16 -1 -5 -2 -102 -1 -215 1 -113 1 -211 1 -217 1 -64 0 -267 0 -280 -1 -25 0
-224 1 -232 0 -3 -1 -10 -2 -16 -1 -5 -1 -46 0 -90 1 -44 1 -102 1 -130 -1
-27 -2 -101 -4 -162 -1 -62 0 -113 3 -113 3 0 4 -21 2 -47 -5 -59 -5 -59 -4
-163 1 -47 1 -92 1 -100 0 -8 0 -33 0 -55 1 -22 0 -93 -1 -157 -2 -65 -1 -118
2 -118 3 0 4 -21 2 -47 -5 -59 -5 -59 -3 -163 0 -47 1 -146 2 -220 0 -74 0
-141 0 -147 1 -205 0 -289 -3 -323 -1 -8 0 -41 0 -72 l2 -58 41 0 41 0 -4 40
c-2 22 -1 40 2 40 3 0 4 30 3 67 -3 85 -4 200 -3 320 1 51 -1 97 -5 103 -3 5
-1 10 5 10 7 0 8 6 2 16 -5 9 -6 32 -1 52 4 20 6 39 4 42 -3 5 -4 40 -5 153 0
9 0 24 0 32 -2 38 -1 233 0 255 1 14 1 31 1 38 -2 26 -2 46 -2 157 0 63 0 122
0 130 1 18 1 39 1 60 -2 38 -1 233 0 255 2 23 2 31 -1 63 -1 6 -1 64 0 127 0
63 0 122 0 130 0 60 0 220 1 240 4 109 4 160 0 160 -3 0 -4 30 -3 67 5 146 4
243 -2 253 -3 5 -1 10 5 10 7 0 8 6 2 16 -5 9 -6 32 -1 52 4 20 6 39 3 43 -4
8 -5 46 -4 199 0 36 -1 84 -2 108 -2 23 -1 42 2 42 3 0 4 30 3 67 -3 85 -4
200 -3 320 1 51 -1 97 -5 103 -3 5 -1 10 5 10 7 0 8 6 1 19 -6 10 -8 21 -5 24
3 3 5 43 4 89 -1 111 -1 100 -1 213 0 55 0 111 1 125 4 109 4 160 0 160 -3 0
-4 24 -2 52 1 29 2 82 1 118 -1 36 -1 71 0 78 1 13 1 32 1 57 -2 38 -1 233 0
255 1 14 1 32 1 40 -1 20 0 130 2 213 1 37 -1 67 -4 67 -3 0 -3 19 0 43 3 23
5 61 3 85 -3 41 -4 42 -37 42 -19 0 -37 -5 -40 -10z"/>
<path d="M1741 8125 c0 -130 -2 -239 -5 -244 -3 -4 -3 -11 1 -14 7 -8 6 -454
-1 -466 -3 -5 -3 -11 1 -14 8 -9 7 -212 -1 -225 -3 -6 -3 -13 2 -16 9 -5 9
-53 -1 -62 -4 -4 -4 -11 0 -17 8 -13 7 -212 -1 -225 -3 -5 -3 -12 1 -15 7 -8
6 -534 -1 -546 -3 -4 -3 -11 0 -14 8 -7 8 -773 0 -785 -3 -5 -3 -12 1 -15 8
-9 7 -212 -1 -225 -3 -6 -3 -13 2 -16 9 -5 9 -47 -1 -63 -4 -5 -4 -13 0 -16 8
-8 7 -212 -1 -225 -3 -5 -3 -12 0 -15 7 -7 7 -214 0 -225 -3 -5 -3 -12 0 -15
8 -7 6 -615 -1 -626 -2 -5 -2 -11 1 -14 8 -7 7 -934 0 -946 -3 -4 -3 -11 1
-15 3 -3 6 -42 6 -86 -1 -44 3 -80 8 -80 11 0 10 -352 10 2760 0 3081 1 2700
-11 2700 -6 0 -9 -90 -9 -235z"/>
<path d="M1881 8343 c-1 -10 -1 -36 0 -58 0 -22 0 -44 0 -50 0 -18 0 -130 0
-145 1 -38 0 -136 -2 -192 0 -18 0 -44 0 -58 2 -40 3 -134 2 -150 0 -8 -1 -31
0 -50 0 -19 0 -39 0 -45 0 -17 0 -859 0 -875 0 -18 0 -117 -1 -145 0 -11 0
-36 1 -55 0 -19 0 -39 0 -45 0 -5 0 -32 0 -60 0 -27 0 -58 -1 -67 -1 -53 -1
-86 -1 -113 1 -16 0 -37 0 -45 -1 -8 -1 -37 0 -65 0 -27 1 -59 1 -70 -1 -11
-1 -45 -1 -75 0 -30 0 -59 0 -65 0 -5 0 -26 0 -45 1 -19 1 -44 1 -55 -1 -11 0
-44 0 -74 0 -29 -1 -56 -4 -58 -2 -3 0 -17 4 -33 4 -16 6 -31 4 -33 -3 -2 -4
-196 -4 -431 1 -234 1 -433 1 -441 -2 -43 -3 -83 -2 -105 2 -40 3 -134 2 -150
0 -8 -1 -31 0 -50 0 -19 0 -39 0 -45 0 -18 0 -130 0 -145 1 -38 0 -136 -2
-192 0 -18 0 -44 0 -58 2 -40 3 -134 2 -150 0 -8 -1 -31 0 -50 0 -19 0 -39 0
-45 0 -14 0 -217 0 -235 0 -15 0 -107 -1 -145 0 -11 0 -36 1 -55 0 -19 0 -39
0 -45 0 -5 0 -32 0 -60 0 -27 0 -58 -1 -67 -1 -63 -1 -86 1 -113 1 -16 0 -34
-1 -40 -1 -5 -2 -29 -1 -52 l1 -43 90 0 90 0 0 2730 0 2730 -89 0 c-79 0 -90
-2 -90 -17z"/>
<path d="M2199 8293 c1 -38 1 -81 2 -98 0 -16 1 -36 0 -42 0 -7 0 -38 0 -68 0
-30 0 -63 0 -72 -1 -10 -1 -34 0 -53 0 -19 0 -39 0 -45 0 -5 0 -129 0 -275 0
-146 0 -272 0 -280 0 -8 0 -37 0 -65 0 -72 -1 -77 -4 -110 -1 -16 1 -42 5 -57
3 -16 3 -28 -2 -28 -4 0 -5 -15 -1 -32 4 -18 4 -49 1 -68 -3 -19 -3 -49 1 -67
4 -18 5 -34 2 -36 -2 -3 -3 -128 -3 -278 1 -151 1 -281 1 -289 -1 -8 -1 -31 0
-50 0 -19 0 -41 0 -47 0 -7 0 -38 0 -68 0 -30 0 -63 0 -72 -1 -10 -1 -34 0
-53 0 -19 0 -39 0 -45 0 -5 0 -129 0 -275 0 -146 0 -272 0 -280 0 -8 0 -37 0
-65 0 -72 -1 -77 -4 -110 -1 -16 1 -42 5 -57 3 -16 3 -28 -2 -28 -4 0 -5 -15
-1 -32 4 -18 4 -49 1 -68 -3 -19 -3 -49 1 -67 4 -18 5 -34 2 -36 -2 -3 -3
-128 -3 -278 1 -151 1 -281 1 -289 -1 -8 -1 -31 0 -50 0 -19 0 -41 0 -47 0 -7
0 -38 0 -68 0 -30 0 -63 0 -72 -1 -10 -1 -34 0 -53 0 -19 0 -41 0 -47 0 -7 0
-146 0 -308 0 -162 0 -303 0 -312 -1 -10 -1 -34 0 -53 0 -19 0 -41 0 -47 0 -7
0 -39 0 -70 0 -32 0 -67 -1 -78 -1 -21 -1 -23 0 -96 1 -25 0 -50 -1 -55 -1 -5
-1 -42 0 -81 l1 -73 180 0 180 0 1 38 c0 20 0 197 -1 392 0 195 0 380 1 410 0
30 0 62 0 70 -1 8 -1 31 0 50 1 19 1 42 0 50 0 8 0 40 0 70 0 30 0 62 0 70 -1
8 -1 33 0 55 1 22 1 47 0 55 0 8 0 38 0 65 1 28 0 57 0 65 -1 8 -1 31 0 50 1
19 1 42 0 50 0 8 0 40 0 70 0 30 0 62 0 70 -1 8 -1 31 0 50 1 19 1 42 0 50 0
8 0 40 0 70 0 30 0 62 0 70 -1 8 -1 31 0 50 1 19 1 42 0 50 0 8 0 40 0 70 0
30 0 62 0 70 -1 8 -1 33 0 55 1 22 1 47 0 55 0 8 0 38 0 65 1 28 0 57 0 65 -1
8 -1 31 0 50 1 19 1 42 0 50 0 8 0 40 0 70 0 30 0 62 0 70 -1 8 -1 31 0 50 1
19 1 42 0 50 0 8 0 40 0 70 0 30 0 62 0 70 -1 8 -1 31 0 50 1 19 1 42 0 50 0
8 0 40 0 70 0 30 0 62 0 70 -1 8 -1 33 0 55 1 22 1 47 0 55 0 8 0 38 0 65 1
28 0 57 0 65 -1 8 -1 31 0 50 1 19 1 42 0 50 0 8 0 40 0 70 0 30 0 62 0 70 -1
8 -1 31 0 50 1 19 1 42 0 50 0 8 0 40 0 70 0 30 0 62 0 70 -1 8 -1 31 0 50 1
19 1 42 0 50 0 8 0 40 0 70 0 30 0 62 0 70 -1 8 -1 33 0 55 1 22 1 47 0 55 0
8 0 38 0 65 1 28 0 57 0 65 -1 8 -1 31 0 50 1 19 1 42 0 50 0 8 0 40 0 70 0
30 0 62 0 70 -1 8 -1 31 0 50 1 19 1 42 0 50 0 8 0 40 0 70 0 30 0 62 0 70 -1
8 -1 31 0 50 1 19 1 42 0 50 0 8 0 40 0 70 0 30 0 62 0 70 -1 8 -1 33 0 55 1
22 1 47 0 55 0 8 0 38 0 65 1 28 0 57 0 65 -1 8 -1 31 0 50 1 19 1 42 0 50 0
8 -1 41 -1 73 l0 57 -180 0 -181 0 0 -67z"/>
<path d="M2718 8335 c-3 -14 -1 -28 4 -31 4 -3 6 -10 2 -15 -5 -9 -8 -169 -4
-194 1 -5 2 -13 1 -17 -1 -9 -1 -86 0 -108 0 -8 0 -42 0 -75 -1 -78 -1 -80 0
-210 0 -60 0 -117 0 -125 0 -8 0 -60 0 -115 0 -55 0 -104 0 -110 -2 -65 -2
-192 0 -200 1 -5 1 -13 0 -17 -1 -9 -1 -86 0 -108 0 -8 0 -42 0 -75 -1 -78 -1
-80 0 -210 0 -60 0 -117 0 -125 0 -8 0 -60 0 -115 0 -55 0 -104 0 -110 -2 -65
-2 -192 0 -200 1 -5 1 -13 0 -17 -1 -9 -1 -86 0 -108 0 -8 0 -42 0 -75 -1 -78
-1 -80 0 -210 0 -60 0 -117 0 -125 0 -8 0 -60 0 -115 0 -55 0 -104 0 -110 -2
-65 -2 -192 0 -200 1 -5 1 -13 0 -17 -1 -9 -1 -86 0 -108 0 -8 0 -42 0 -75 -1
-78 -1 -80 0 -210 0 -60 0 -117 0 -125 0 -8 0 -60 0 -115 0 -55 0 -104 0 -110
-2 -65 -2 -192 0 -200 1 -5 1 -13 0 -17 -1 -9 -1 -86 0 -108 0 -8 0 -42 0 -75
-1 -78 -1 -80 0 -210 0 -60 0 -116 0 -122 0 -7 0 -69 0 -138 0 -125 0 -144 -2
-167 0 -14 0 -114 1 -218 1 -36 1 -71 0 -77 -1 -35 -1 -55 0 -135 l1 -88 59 0
60 0 0 98 c1 53 0 300 0 547 -1 248 -1 455 -1 460 0 16 0 458 0 478 0 15 0
450 0 480 0 32 0 464 0 480 0 15 0 450 0 480 0 32 0 464 0 480 0 15 0 450 0
480 0 32 0 464 0 480 0 15 0 446 0 480 1 178 2 460 1 485 l0 32 -59 0 c-55 0
-59 -2 -63 -25z"/>
<path d="M3000 8258 c1 -102 2 -639 1 -668 0 -8 0 -60 0 -115 1 -55 1 -107 0
-115 0 -8 0 -80 0 -160 1 -80 1 -152 1 -160 -1 -8 -1 -100 -1 -205 0 -104 0
-197 0 -205 0 -8 0 -96 0 -195 1 -99 1 -187 1 -195 -1 -8 -1 -136 -1 -285 0
-148 0 -277 0 -285 0 -8 0 -60 0 -115 1 -55 1 -107 0 -115 0 -8 0 -80 0 -160
1 -80 1 -152 1 -160 -1 -8 -1 -100 -1 -205 0 -104 0 -197 0 -205 0 -8 0 -96 0
-195 1 -99 1 -187 1 -195 -1 -8 -1 -136 -1 -285 1 -148 0 -283 -1 -300 -1 -16
-2 -34 -2 -40 0 -5 1 -93 2 -195 1 -102 1 -190 0 -195 -2 -6 -2 -99 -1 -207
l1 -198 90 0 90 0 0 2730 0 2730 -90 0 -91 0 1 -102z"/>
<path d="M3359 8338 c-1 -13 0 -27 1 -33 1 -5 1 -39 0 -75 -1 -36 -1 -150 0
-255 0 -104 0 -212 -1 -240 0 -27 -1 -57 0 -65 0 -8 0 -44 0 -80 -1 -36 0
-117 0 -180 1 -63 1 -124 1 -135 -1 -11 -1 -26 -1 -32 0 -7 0 -43 0 -80 0 -38
1 -95 1 -128 0 -33 1 -67 0 -75 0 -8 1 -35 1 -60 0 -25 1 -49 1 -55 0 -32 -1
-222 -1 -235 1 -124 -1 -446 -2 -480 -1 -25 -1 -51 0 -57 2 -25 2 -39 2 -223
0 -102 0 -192 0 -200 0 -162 0 -279 -1 -295 -1 -11 -1 -26 -1 -32 0 -7 0 -43
0 -80 0 -38 1 -95 1 -128 1 -33 0 -69 0 -80 -1 -11 -1 -27 -1 -35 0 -8 0 -55
0 -105 0 -49 0 -139 1 -200 0 -60 0 -132 -1 -160 0 -27 -1 -56 0 -62 1 -7 1
-19 2 -25 1 -26 0 -515 -2 -558 -1 -25 -1 -51 0 -57 2 -25 2 -39 2 -223 0
-102 0 -192 0 -200 0 -68 0 -443 -1 -472 l-1 -38 131 0 130 0 0 2730 0 2730
-130 0 c-128 0 -130 0 -131 -22z"/>
<path d="M3740 5630 l0 -2730 68 0 69 0 2 38 c1 20 2 44 2 52 0 8 0 33 0 55 0
22 0 48 0 58 0 9 0 37 0 62 0 25 0 53 0 63 -1 20 0 90 1 112 0 8 0 29 -2 45
-2 39 -2 1551 0 1590 2 17 2 38 2 48 0 9 -1 37 -1 62 0 25 0 53 0 63 0 9 0 35
0 57 0 22 0 48 0 58 0 9 0 37 0 62 0 25 0 53 0 63 0 9 0 35 0 57 0 22 0 48 0
58 0 9 0 37 0 62 0 25 0 53 0 63 0 9 0 35 0 57 0 22 0 48 0 58 0 9 0 37 0 62
0 25 0 53 0 63 0 9 0 35 0 57 0 22 0 48 0 58 0 9 0 37 0 62 0 25 0 53 0 63 0
9 0 35 0 57 0 22 0 48 0 58 0 9 0 37 0 62 0 25 0 53 0 63 0 9 0 35 0 57 0 22
0 48 0 58 0 9 0 37 0 62 0 25 0 53 0 63 0 9 0 35 0 57 0 22 0 48 0 58 0 9 0
37 0 62 0 25 0 53 0 63 0 9 0 35 0 57 0 22 0 48 0 58 0 9 0 37 0 62 0 25 0 53
0 63 0 9 0 35 0 57 1 53 1 67 -1 118 -1 23 -1 47 0 52 1 6 2 247 1 538 l-1
527 -70 0 -70 0 0 -2730z"/>
<path d="M4060 5630 l0 -2730 90 0 90 0 1 33 c1 35 -1 245 -3 256 0 3 0 11 1
16 2 7 1 603 0 690 0 6 0 147 0 315 0 168 0 314 0 325 0 11 0 142 1 291 1 149
0 275 -1 280 -1 5 -1 14 0 19 2 8 2 183 0 490 0 6 0 39 0 75 0 36 0 72 0 80 0
8 0 89 0 180 0 91 0 172 0 180 0 8 0 107 0 220 0 113 0 212 0 220 0 13 0 102
0 165 1 151 1 286 0 292 -1 4 -1 13 0 18 2 7 1 599 0 690 0 6 0 132 1 280 0
149 1 287 0 308 l0 37 -90 0 -90 0 0 -2730z"/>
<path d="M4400 8303 c-1 -45 1 -954 1 -998 0 -5 0 -39 0 -75 0 -36 0 -73 0
-82 0 -10 0 -47 0 -83 0 -36 0 -71 0 -77 0 -7 0 -42 0 -78 0 -36 0 -72 0 -80
0 -8 0 -332 0 -720 0 -388 0 -712 0 -720 0 -8 0 -44 0 -80 0 -36 0 -73 0 -82
0 -10 0 -47 0 -83 0 -36 0 -71 0 -77 0 -7 0 -42 0 -78 0 -36 0 -72 0 -80 0 -8
0 -332 0 -720 0 -388 0 -712 0 -720 1 -50 0 -161 -2 -195 -1 -22 -1 -47 -1
-55 1 -8 1 -46 1 -85 0 -38 0 -77 0 -85 0 -8 1 -45 1 -83 l1 -67 99 0 100 0 0
43 c1 54 1 5202 0 5325 l0 92 -100 0 -100 0 0 -57z"/>
<path d="M4740 5630 c0 -1806 3 -2730 10 -2730 6 0 10 38 10 93 1 125 1 5282
0 5330 0 20 -4 37 -10 37 -6 0 -10 -929 -10 -2730z"/>
<path d="M4900 5630 l0 -2730 60 0 60 0 0 70 c0 39 0 1260 0 2715 0 1455 0
2652 0 2660 0 12 -13 15 -60 15 l-60 0 0 -2730z"/>
<path d="M5180 5630 l0 -2730 80 0 80 0 0 188 c0 218 0 4843 0 5100 l0 172
-80 0 -80 0 0 -2730z"/>
<path d="M5439 8318 c-1 -24 -1 -47 0 -52 1 -4 2 -27 1 -50 0 -22 0 -92 0
-153 0 -62 0 -121 0 -130 0 -80 1 -107 6 -114 3 -5 2 -9 -3 -9 -4 0 -8 -22 -8
-50 0 -27 3 -50 6 -50 4 0 3 -15 -1 -34 -4 -19 -4 -39 0 -46 4 -7 4 -27 0 -46
-4 -18 -6 -35 -3 -38 2 -2 4 -42 4 -88 -1 -45 -1 -109 -1 -140 1 -83 1 -70 1
-288 0 -110 0 -207 0 -215 0 -8 -1 -35 -1 -60 -1 -24 1 -49 5 -55 3 -5 3 -10
-2 -10 -6 0 -9 -86 -3 -110 1 -3 1 -43 0 -90 -1 -72 0 -152 1 -202 0 -7 0 -42
0 -78 -1 -36 -1 -72 0 -80 0 -8 0 -44 0 -80 -1 -36 -1 -73 -1 -82 0 -10 1
-108 1 -218 0 -110 0 -207 0 -215 0 -8 -1 -35 -1 -60 -1 -24 1 -49 5 -55 3 -5
3 -10 -2 -10 -6 0 -9 -86 -3 -110 1 -3 1 -43 0 -90 -1 -72 0 -106 1 -202 0
-11 -1 -179 -1 -273 0 -88 1 -108 6 -116 3 -5 2 -9 -3 -9 -4 0 -8 -22 -8 -50
0 -27 3 -50 6 -50 4 0 3 -15 -1 -34 -4 -19 -4 -39 0 -46 4 -7 4 -27 0 -46 -4
-18 -6 -35 -3 -38 2 -2 4 -42 4 -88 -1 -45 -1 -109 -1 -140 1 -83 1 -70 1
-288 0 -110 0 -207 0 -215 0 -8 -1 -35 -1 -60 -1 -24 1 -49 5 -55 3 -5 3 -10
-2 -10 -6 0 -9 -86 -3 -110 1 -3 1 -43 0 -90 -1 -74 0 -163 1 -202 0 -7 -1
-40 -1 -73 -1 -33 -1 -72 -1 -87 l1 -28 150 0 150 0 0 38 c0 48 0 5126 0 5295
l0 127 -150 0 -150 0 -1 -42z"/>
<path d="M5840 8303 c-1 -32 0 -267 0 -523 1 -256 1 -472 1 -480 0 -22 0 -463
0 -475 0 -5 0 -39 0 -75 0 -36 0 -74 0 -85 0 -43 0 -471 0 -485 0 -8 0 -44 0
-80 0 -36 0 -72 0 -80 0 -18 0 -460 0 -475 0 -5 0 -39 0 -75 0 -36 0 -74 0
-85 0 -11 0 -121 0 -245 0 -124 0 -229 0 -235 0 -5 0 -255 0 -555 0 -300 0
-554 0 -565 0 -11 0 -121 0 -245 0 -124 0 -229 0 -235 0 -5 0 -77 -1 -160 -1
-82 -1 -171 0 -197 l0 -48 100 0 100 0 0 263 c1 388 1 4802 0 5015 l0 182
-100 0 -100 0 0 -57z"/>
<path d="M6158 8321 c-2 -21 0 -52 3 -69 3 -17 4 -34 1 -37 -3 -3 -4 -35 -3
-73 1 -37 2 -71 2 -77 -2 -46 -2 -92 -1 -100 1 -5 1 -28 1 -50 -1 -32 -1 -190
0 -255 0 -8 0 -49 -1 -90 -1 -41 -1 -78 0 -82 2 -10 2 -75 0 -85 -4 -21 -1
-203 3 -211 3 -4 2 -25 -3 -45 -4 -22 -4 -39 1 -43 5 -3 6 -10 3 -16 -8 -12
-8 -203 -1 -215 3 -5 2 -26 -3 -46 -4 -22 -4 -39 1 -43 5 -3 6 -10 3 -16 -8
-12 -8 -203 -1 -216 3 -4 2 -25 -3 -45 -4 -22 -4 -39 1 -43 5 -3 6 -10 3 -16
-8 -12 -8 -203 -1 -215 3 -5 2 -26 -3 -46 -4 -22 -4 -39 1 -43 5 -3 6 -10 3
-16 -8 -12 -8 -203 -1 -216 3 -4 2 -25 -3 -45 -4 -22 -4 -39 1 -43 5 -3 6 -10
3 -16 -8 -12 -8 -203 -1 -215 3 -5 2 -26 -3 -46 -4 -22 -4 -39 1 -43 5 -3 6
-10 3 -16 -8 -12 -8 -203 -1 -216 3 -4 2 -25 -3 -45 -4 -22 -4 -39 1 -43 5 -3
6 -10 3 -16 -3 -5 -6 -56 -5 -111 1 -56 2 -109 2 -117 0 -8 0 -49 -1 -90 -1
-41 -1 -79 0 -85 1 -5 1 -28 1 -50 -1 -32 -1 -190 0 -255 0 -8 0 -49 -1 -90
-1 -41 -1 -79 0 -85 1 -5 1 -14 0 -20 -2 -13 -2 -177 0 -190 1 -5 1 -14 0 -20
-1 -5 -1 -32 -1 -60 1 -90 1 -130 -2 -155 -2 -14 -1 -29 2 -34 2 -6 4 -28 3
-50 -2 -33 -2 -166 -1 -256 0 -8 0 -49 -1 -90 -1 -41 -1 -79 0 -85 1 -5 1 -14
0 -20 -2 -13 -2 -177 0 -190 1 -5 1 -14 0 -20 -1 -10 -1 -62 1 -152 l1 -43 59
0 59 0 0 2730 0 2730 -59 0 -59 0 -4 -39z"/>
<path d="M6460 5630 l0 -2730 110 0 110 0 0 263 c1 400 1 4764 0 4995 l0 202
-110 0 -110 0 0 -2730z"/>
<path d="M6840 5630 l0 -2730 50 0 50 0 0 2730 0 2730 -50 0 -50 0 0 -2730z"/>
<path d="M7100 5630 l0 -2730 50 0 c50 0 50 0 51 33 2 120 0 228 -6 237 -3 5
-2 10 3 10 5 0 6 19 2 42 -3 24 -3 58 1 76 4 18 3 35 -2 37 -4 3 -6 12 -3 19
8 22 10 176 2 176 -4 0 -5 6 -2 14 7 18 10 106 4 106 -6 0 -3 129 4 146 3 8 1
16 -5 19 -5 4 -6 11 -3 17 8 13 8 284 -1 297 -3 6 -3 11 2 11 7 0 8 78 3 220
0 27 -1 157 -1 178 0 6 0 41 0 77 0 36 1 73 1 83 0 9 0 46 -1 82 0 36 0 72 0
80 3 126 2 221 -4 229 -3 6 -2 11 3 11 5 0 6 19 2 43 -3 23 -3 57 1 75 4 18 3
35 -2 37 -4 3 -6 12 -3 19 8 22 10 176 2 176 -4 0 -5 6 -2 14 7 18 10 106 4
106 -6 0 -3 129 4 146 3 8 1 16 -5 19 -5 4 -6 11 -3 17 8 13 8 284 -1 297 -3
6 -3 11 2 11 9 0 8 282 -1 305 -3 8 -2 15 3 15 4 0 5 19 1 43 -3 23 -3 57 1
75 4 18 3 35 -2 37 -4 3 -6 12 -3 19 8 22 10 176 2 176 -4 0 -5 6 -2 14 7 18
10 106 4 106 -6 0 -3 129 4 146 3 8 1 16 -5 19 -5 4 -6 11 -3 17 8 13 8 284
-1 297 -3 6 -3 11 2 11 7 0 8 78 3 220 0 27 -1 157 -1 178 0 6 0 41 0 77 0 36
1 73 1 83 0 9 0 46 -1 82 0 36 0 71 0 78 1 11 1 86 1 115 0 6 0 33 1 58 1 25
-1 51 -5 57 -4 7 -3 12 2 12 5 0 7 14 4 30 -4 29 -6 30 -53 30 l-49 0 0 -2730z"/>
<path d="M7362 8325 c2 -19 1 -35 -3 -35 -3 0 -3 -17 0 -37 4 -21 4 -53 0 -71
-3 -18 -3 -35 2 -38 5 -3 7 -10 3 -15 -8 -14 -8 -204 0 -218 4 -6 4 -11 -1
-11 -4 0 -7 -17 -6 -37 3 -60 4 -85 3 -135 0 -27 0 -54 0 -60 1 -7 -1 -37 -2
-66 -2 -28 0 -52 3 -52 4 0 4 -15 0 -32 -4 -18 -4 -48 0 -66 4 -18 3 -49 -1
-68 -4 -19 -4 -36 0 -39 4 -3 4 -21 0 -40 -4 -19 -4 -37 0 -40 5 -3 5 -18 0
-34 -4 -15 -4 -34 0 -41 5 -7 6 -19 3 -27 -8 -21 -9 -213 -1 -213 4 0 5 -6 2
-14 -8 -21 -10 -106 -2 -106 4 0 5 -6 2 -14 -8 -21 -10 -106 -2 -106 4 0 5 -6
2 -14 -8 -20 -10 -106 -3 -106 4 0 3 -17 -1 -38 -3 -20 -3 -49 1 -64 4 -15 3
-43 -1 -63 -4 -19 -4 -37 0 -40 4 -3 4 -21 0 -40 -4 -19 -4 -37 0 -40 5 -3 5
-18 0 -34 -4 -15 -4 -34 0 -41 4 -7 4 -25 0 -40 -4 -15 -4 -33 0 -40 4 -6 4
-27 0 -46 -4 -19 -4 -36 0 -39 4 -3 4 -21 0 -40 -4 -19 -4 -37 0 -40 5 -3 5
-18 0 -34 -4 -15 -4 -34 0 -41 5 -7 6 -19 3 -27 -8 -21 -9 -213 -1 -213 4 0 5
-6 2 -14 -8 -21 -10 -106 -2 -106 4 0 5 -6 2 -14 -8 -21 -10 -106 -2 -106 4 0
5 -6 2 -14 -8 -20 -10 -106 -3 -106 4 0 3 -17 -1 -38 -3 -20 -3 -49 1 -64 4
-15 3 -43 -1 -63 -4 -19 -4 -37 0 -40 4 -3 4 -21 0 -40 -4 -19 -4 -37 0 -40 5
-3 5 -18 0 -34 -4 -15 -4 -34 0 -42 5 -7 6 -17 3 -22 -8 -12 -7 -203 1 -216 4
-6 4 -11 -1 -11 -4 0 -7 -17 -6 -37 3 -60 4 -85 3 -135 0 -27 0 -54 0 -60 1
-7 -1 -37 -2 -66 -2 -28 0 -52 3 -52 4 0 4 -15 0 -32 -4 -18 -4 -48 0 -66 4
-18 3 -49 -1 -68 -4 -19 -4 -36 0 -39 4 -3 4 -21 0 -40 -4 -19 -4 -37 0 -40 5
-3 5 -18 0 -34 -4 -15 -4 -34 0 -41 5 -7 6 -19 3 -27 -8 -21 -9 -213 -1 -213
4 0 5 -6 2 -14 -8 -21 -10 -106 -2 -106 4 0 5 -6 2 -14 -8 -21 -10 -106 -2
-106 4 0 5 -6 2 -14 -8 -20 -10 -106 -3 -106 4 0 3 -17 -1 -38 -3 -20 -3 -49
1 -64 4 -15 3 -43 -1 -63 -4 -19 -4 -37 0 -40 4 -3 4 -21 0 -40 -4 -19 -4 -37
0 -40 5 -3 5 -18 0 -34 -4 -15 -4 -34 0 -41 4 -7 5 -24 1 -37 -4 -14 -5 -41
-3 -59 l4 -34 59 0 59 0 0 118 c0 152 0 5232 0 5295 l0 47 -61 0 -61 0 4 -35z"/>
<path d="M7620 5630 l0 -2730 160 0 160 0 0 2730 0 2730 -160 0 -160 0 0
-2730z"/>
<path d="M8060 5630 l0 -2730 60 0 60 0 0 730 c0 402 0 1524 0 2495 0 971 0
1871 0 2000 l0 235 -60 0 -60 0 0 -2730z"/>
<path d="M8280 5630 l0 -2730 90 0 90 0 0 2730 0 2730 -90 0 -90 0 0 -2730z"/>
<path d="M8600 5630 l0 -2730 60 0 c68 0 63 -10 60 120 -1 36 -2 74 -1 85 0
11 0 65 0 120 0 123 0 119 1 235 1 52 1 100 0 105 -1 6 -1 15 0 20 1 6 1 39 0
75 -1 36 -2 74 -1 85 0 11 0 65 0 120 0 55 0 109 0 120 0 11 0 65 0 120 0 113
0 107 2 160 0 22 0 45 -1 50 -1 6 -2 13 -1 17 2 15 3 133 1 143 -1 6 -1 14 0
20 1 5 1 48 0 95 -1 47 -1 96 -1 110 0 14 0 70 0 125 0 55 0 109 0 120 0 11 0
65 0 120 0 113 0 107 2 160 0 22 0 45 -1 50 -1 6 -2 13 -1 17 2 15 3 133 1
143 -1 6 -1 14 0 20 1 5 1 48 0 95 -1 47 -1 96 -1 110 0 14 0 70 0 125 0 123
0 119 1 235 1 52 1 100 0 105 -1 6 -1 15 0 20 1 6 1 39 0 75 -1 36 -2 74 -1
85 0 11 0 65 0 120 0 55 0 109 0 120 0 11 0 65 0 120 0 113 0 107 2 160 0 22
0 45 -1 50 -1 6 -2 13 -1 17 2 15 3 133 1 143 -1 6 -1 14 0 20 1 5 1 48 0 95
-1 47 -1 96 -1 110 0 14 0 70 0 125 0 55 0 109 0 120 0 11 0 65 0 120 0 113 0
107 2 160 0 22 0 45 -1 50 -1 6 -2 13 -1 17 2 15 3 133 1 143 -1 6 -1 14 0 20
1 5 1 50 0 100 -2 106 -2 139 1 151 1 5 1 28 0 52 l-1 42 -60 0 -60 0 0 -2730z"/>
<path d="M8880 8313 c0 -27 -1 -59 -3 -73 -1 -14 0 -42 4 -63 3 -20 3 -40 -1
-42 -4 -3 -4 -22 0 -42 5 -20 6 -41 3 -46 -3 -5 -5 -55 -3 -111 2 -113 1 -152
-3 -180 -2 -11 -1 -37 3 -58 4 -21 4 -41 0 -43 -4 -3 -4 -22 0 -42 5 -20 6
-41 3 -46 -3 -5 -5 -55 -3 -111 2 -113 1 -152 -3 -180 -2 -11 -1 -37 3 -58 4
-21 4 -41 0 -43 -4 -3 -4 -22 0 -42 5 -20 6 -41 3 -46 -3 -5 -5 -55 -3 -111 2
-113 1 -152 -3 -180 -2 -11 -1 -37 3 -58 4 -21 4 -41 0 -43 -4 -3 -4 -22 0
-42 5 -20 6 -41 3 -46 -3 -5 -5 -55 -3 -111 2 -113 1 -152 -3 -180 -2 -11 -1
-37 3 -58 4 -21 4 -41 0 -43 -4 -3 -4 -21 0 -40 4 -19 4 -35 0 -35 -4 0 -4
-18 0 -40 4 -22 4 -43 0 -45 -4 -3 -4 -22 0 -42 5 -20 6 -41 3 -46 -3 -5 -5
-55 -3 -111 2 -113 1 -152 -3 -180 -2 -11 -1 -37 3 -58 4 -21 4 -41 0 -43 -4
-3 -4 -22 0 -42 5 -20 6 -41 3 -46 -3 -5 -5 -55 -3 -111 2 -113 1 -152 -3
-180 -2 -11 -1 -37 3 -58 4 -21 4 -41 0 -43 -4 -3 -4 -22 0 -42 5 -20 6 -41 3
-46 -3 -5 -5 -55 -3 -111 2 -113 1 -152 -3 -180 -2 -11 -1 -37 3 -58 4 -21 4
-41 0 -43 -4 -3 -4 -22 0 -42 5 -20 6 -41 3 -46 -3 -5 -5 -55 -3 -111 2 -113
1 -152 -3 -180 -2 -11 -1 -37 3 -58 4 -21 4 -41 0 -43 -4 -3 -4 -22 0 -42 5
-20 6 -41 3 -46 -3 -5 -5 -55 -3 -111 2 -113 1 -152 -3 -180 -2 -11 -1 -37 3
-58 4 -21 4 -41 0 -43 -4 -3 -4 -21 0 -40 4 -19 4 -35 0 -35 -4 0 -4 -18 0
-40 4 -22 4 -43 0 -45 -4 -3 -4 -22 0 -42 5 -20 6 -41 3 -46 -3 -5 -5 -55 -3
-111 2 -113 1 -152 -3 -180 -2 -11 -1 -37 3 -58 4 -21 3 -41 -1 -44 -5 -3 -7
-10 -3 -15 3 -5 6 -30 6 -54 l0 -45 79 0 c75 0 79 1 79 23 1 12 1 436 0 942 0
506 -1 927 -1 935 0 8 0 584 0 1280 0 696 0 1272 0 1280 1 113 2 944 1 968 l0
32 -80 0 -80 0 0 -47z"/>
<path d="M9180 5630 l0 -2730 120 0 120 0 0 2730 0 2730 -120 0 -120 0 0
-2730z"/>
<path d="M9559 8283 c-1 -43 -1 -81 0 -85 2 -14 3 -152 2 -298 0 -12 0 -173 0
-240 0 -73 0 -308 0 -320 0 -8 0 -62 0 -120 0 -58 0 -112 0 -120 0 -8 0 -62 0
-120 0 -58 0 -112 0 -120 0 -8 0 -62 0 -120 0 -58 0 -112 0 -120 0 -12 0 -173
0 -240 0 -73 0 -308 0 -320 0 -8 0 -62 0 -120 0 -58 0 -112 0 -120 0 -8 0 -62
0 -120 0 -58 0 -112 0 -120 0 -8 0 -62 0 -120 0 -58 0 -112 0 -120 0 -12 0
-173 0 -240 0 -73 0 -308 0 -320 0 -8 0 -62 0 -120 0 -58 0 -112 0 -120 0 -8
0 -62 0 -120 0 -58 0 -112 0 -120 0 -8 0 -62 0 -120 0 -58 0 -112 0 -120 0
-12 0 -173 0 -240 0 -73 0 -308 0 -320 0 -8 0 -62 0 -120 0 -58 0 -112 0 -120
0 -8 0 -62 0 -120 0 -117 0 -145 -2 -157 -1 -4 -1 -25 0 -45 l1 -38 60 0 60 0
0 53 c1 66 1 5331 0 5375 l0 32 -60 0 -60 0 -1 -77z"/>
<path d="M9820 5630 l0 -2730 140 0 140 0 0 2730 0 2730 -140 0 -140 0 0
-2730z"/>
<path d="M10260 5630 l0 -2730 100 0 100 0 0 2730 0 2730 -100 0 -100 0 0
-2730z"/>
<path d="M10620 5630 l0 -2730 60 0 60 0 0 2730 0 2730 -60 0 -60 0 0 -2730z"/>
<path d="M10920 8278 c-1 -107 -1 -5326 0 -5355 0 -23 0 -23 170 -23 l170 0 0
2730 0 2730 -170 0 -170 0 0 -82z"/>
</g>
</svg>
