<svg width="563" height="273" viewBox="0 0 563 273" fill="none" xmlns="http://www.w3.org/2000/svg">
<g clip-path="url(#clip0_2686_3)">
<rect x="110" y="-140" width="18" height="680" fill="black"/>
<rect x="168" y="-140" width="13" height="680" fill="black"/>
<rect x="136" y="-140" width="6" height="680" fill="black"/>
<rect x="150" y="-140" width="9" height="680" fill="black"/>
<rect width="9" height="679" transform="matrix(-1 0 0 1 212 -148)" fill="black"/>
<rect width="7" height="679" transform="matrix(-1 0 0 1 194 -148)" fill="black"/>
<rect y="-146" width="18" height="681" fill="black"/>
<rect x="54" y="-146" width="15" height="681" fill="black"/>
<rect x="23" y="-146" width="9" height="681" fill="black"/>
<rect x="39" y="-146" width="8" height="681" fill="black"/>
<rect width="9" height="681" transform="matrix(-1 0 0 1 103 -153)" fill="black"/>
<rect width="1" height="681" transform="matrix(-1 0 0 1 88 -153)" fill="black"/>
<rect width="4" height="681" transform="matrix(-1 0 0 1 80 -153)" fill="black"/>
<rect width="17" height="680" transform="matrix(-1 0 0 1 563 -140)" fill="black"/>
<rect width="14" height="680" transform="matrix(-1 0 0 1 505 -140)" fill="black"/>
<rect width="12" height="681" transform="matrix(-1 0 0 1 471 -145)" fill="black"/>
<rect width="6" height="680" transform="matrix(-1 0 0 1 537 -140)" fill="black"/>
<rect width="10" height="680" transform="matrix(-1 0 0 1 523 -140)" fill="black"/>
<rect x="444" y="-148" width="8" height="679" fill="black"/>
<rect x="478" y="-148" width="6" height="679" fill="black"/>
<rect width="16" height="691" transform="matrix(-1 0 0 1 397 -146)" fill="black"/>
<rect width="6" height="691" transform="matrix(-1 0 0 1 436 -146)" fill="black"/>
<rect width="9" height="691" transform="matrix(-1 0 0 1 423 -146)" fill="black"/>
<rect x="323" y="-153" width="11" height="693" fill="black"/>
<rect x="368" y="-153" width="6" height="693" fill="black"/>
<rect x="403" y="-153" width="6" height="693" fill="black"/>
<rect x="342" y="-153" width="5" height="693" fill="black"/>
<rect x="355" y="-153" width="5" height="693" fill="black"/>
<rect width="15" height="679" transform="matrix(-1 0 0 1 287 -134)" fill="black"/>
<rect width="6" height="679" transform="matrix(-1 0 0 1 314 -134)" fill="black"/>
<rect width="10" height="679" transform="matrix(-1 0 0 1 302 -134)" fill="black"/>
<rect x="220" y="-140" width="10" height="680" fill="black"/>
<rect x="259" y="-140" width="8" height="680" fill="black"/>
<rect x="237" y="-140" width="1" height="680" fill="black"/>
<rect x="245" y="-140" width="6" height="680" fill="black"/>
</g>
<defs>
<clipPath id="clip0_2686_3">
<rect width="563" height="273" fill="white"/>
</clipPath>
</defs>
</svg>
