<svg width="568" height="273" viewBox="0 0 568 273" fill="none" xmlns="http://www.w3.org/2000/svg">
<g clip-path="url(#clip0_2675_2)">
<rect width="568" height="273" fill="white"/>
<rect x="92" y="-177" width="17" height="633" fill="black"/>
<rect x="144" y="-177" width="12" height="633" fill="black"/>
<rect x="116" y="-177" width="6" height="633" fill="black"/>
<rect x="128" y="-177" width="9" height="633" fill="black"/>
<rect width="8" height="632" transform="matrix(-1 0 0 1 196 -184)" fill="black"/>
<rect width="7" height="632" transform="matrix(-1 0 0 1 167 -184)" fill="black"/>
<rect x="-13" y="-182" width="17" height="633" fill="black"/>
<rect x="35" y="-182" width="14" height="633" fill="black"/>
<rect x="7" y="-182" width="8" height="633" fill="black"/>
<rect x="21" y="-182" width="8" height="633" fill="black"/>
<rect width="9" height="634" transform="matrix(-1 0 0 1 87 -189)" fill="black"/>
<rect width="7" height="634" transform="matrix(-1 0 0 1 59 -189)" fill="black"/>
<rect width="1" height="634" transform="matrix(-1 0 0 1 73 -189)" fill="black"/>
<rect width="4" height="634" transform="matrix(-1 0 0 1 67 -189)" fill="black"/>
<rect width="16" height="633" transform="matrix(-1 0 0 1 511 -177)" fill="black"/>
<rect width="13" height="633" transform="matrix(-1 0 0 1 459 -177)" fill="black"/>
<rect width="12" height="633" transform="matrix(-1 0 0 1 433 -181)" fill="black"/>
<rect width="6" height="633" transform="matrix(-1 0 0 1 487 -177)" fill="black"/>
<rect width="9" height="633" transform="matrix(-1 0 0 1 474 -177)" fill="black"/>
<rect x="408" y="-184" width="8" height="632" fill="black"/>
<rect x="436" y="-184" width="6" height="632" fill="black"/>
<rect width="15" height="643" transform="matrix(-1 0 0 1 358 -182)" fill="black"/>
<rect width="13" height="643" transform="matrix(-1 0 0 1 184 -186)" fill="black"/>
<rect width="8" height="643" transform="matrix(-1 0 0 1 393 -182)" fill="black"/>
<rect width="6" height="643" transform="matrix(-1 0 0 1 404 -182)" fill="black"/>
<rect width="9" height="643" transform="matrix(-1 0 0 1 379 -182)" fill="black"/>
<rect x="297" y="-189" width="10" height="645" fill="black"/>
<rect x="331" y="-189" width="6" height="645" fill="black"/>
<rect x="361" y="-189" width="6" height="645" fill="black"/>
<rect x="311" y="-189" width="4" height="645" fill="black"/>
<rect x="320" y="-189" width="5" height="645" fill="black"/>
<rect width="14" height="632" transform="matrix(-1 0 0 1 255 -171)" fill="black"/>
<rect width="6" height="632" transform="matrix(-1 0 0 1 281 -171)" fill="black"/>
<rect width="7" height="632" transform="matrix(-1 0 0 1 292 -171)" fill="black"/>
<rect width="9" height="632" transform="matrix(-1 0 0 1 269 -171)" fill="black"/>
<rect x="201" y="-177" width="9" height="633" fill="black"/>
<rect x="230" y="-177" width="7" height="633" fill="black"/>
<rect x="215" y="-177" width="1" height="633" fill="black"/>
<rect x="220" y="-177" width="5" height="633" fill="black"/>
<rect width="12" height="633" transform="matrix(-1 0 0 1 569 -182)" fill="black"/>
<rect x="518" y="-189" width="7" height="634" fill="black"/>
<rect x="546" y="-189" width="6" height="634" fill="black"/>
<rect x="530" y="-189" width="3" height="634" fill="black"/>
<rect x="537" y="-189" width="4" height="634" fill="black"/>
</g>
<defs>
<clipPath id="clip0_2675_2">
<rect width="568" height="273" fill="white"/>
</clipPath>
</defs>
</svg>
